<svg width="201" height="41" viewBox="0 0 201 41" fill="none" xmlns="http://www.w3.org/2000/svg">
<path fill-rule="evenodd" clip-rule="evenodd" d="M111.723 34.1046C106.323 38.0946 98.5131 40.1946 91.7831 40.1946C82.7877 40.2429 74.0979 36.9338 67.4131 30.9146C66.9131 30.4646 67.3631 29.8346 67.9731 30.1946C75.3953 34.4332 83.7958 36.66 92.3431 36.6546C98.3231 36.6546 104.893 35.4146 110.943 32.8546C111.843 32.4646 112.613 33.4546 111.723 34.1046Z" fill="#EFA82E"/>
<path fill-rule="evenodd" clip-rule="evenodd" d="M113.963 31.5541C113.273 30.6741 109.403 31.1341 107.663 31.3441C107.143 31.4041 107.063 30.9441 107.533 30.6141C110.623 28.4441 115.683 29.0741 116.263 29.7941C116.863 30.5341 116.113 35.5941 113.223 38.0041C112.773 38.3841 112.353 38.1841 112.553 37.6941C113.203 36.0641 114.653 32.4341 113.963 31.5541Z" fill="#EFA82E"/>
<path fill-rule="evenodd" clip-rule="evenodd" d="M107.793 15.3239V13.2239C107.793 12.8939 108.033 12.6839 108.323 12.6839H117.773C118.073 12.6839 118.313 12.9039 118.313 13.2139V15.0139C118.313 15.3139 118.053 15.7139 117.603 16.3439L112.703 23.3139C114.523 23.2739 116.443 23.5439 118.103 24.4739C118.463 24.6739 118.573 24.9839 118.603 25.2939V27.5339C118.603 27.8439 118.263 28.2039 117.903 28.0139C116.358 27.2215 114.646 26.8099 112.91 26.8134C111.174 26.8168 109.464 27.2353 107.923 28.0339C107.593 28.2039 107.253 27.8539 107.253 27.5439V25.4139C107.253 25.0739 107.253 24.4839 107.603 23.9639L113.273 15.8539H108.333C108.262 15.8552 108.192 15.8425 108.127 15.8165C108.061 15.7904 108.002 15.7516 107.952 15.7023C107.901 15.6529 107.861 15.594 107.834 15.5291C107.807 15.4641 107.793 15.3944 107.793 15.3239ZM73.3428 28.4539H70.4628C70.3364 28.4453 70.217 28.3925 70.1256 28.3047C70.0342 28.217 69.9766 28.0999 69.9628 27.9739V13.2539C69.9628 12.9539 70.2028 12.7239 70.5128 12.7239H73.1828C73.4628 12.7339 73.6828 12.9539 73.7028 13.2239V15.1439H73.7628C74.4628 13.2839 75.7628 12.4139 77.5428 12.4139C79.3428 12.4139 80.4628 13.2839 81.2728 15.1439C81.5585 14.328 82.096 13.624 82.8077 13.1333C83.5194 12.6427 84.3686 12.3907 85.2328 12.4139C86.4328 12.4139 87.7528 12.9139 88.5628 14.0239C89.4628 15.2639 89.2828 17.0639 89.2828 18.6439V27.9239C89.2828 28.2239 89.0328 28.4539 88.7328 28.4539H85.8628C85.7264 28.4489 85.597 28.3926 85.5006 28.2961C85.4041 28.1996 85.3477 28.0702 85.3428 27.9339V20.1339C85.3428 19.5039 85.4028 17.9539 85.2628 17.3739C85.0428 16.3739 84.4028 16.1039 83.5728 16.1039C82.8728 16.1039 82.1528 16.5639 81.8528 17.3039C81.5628 18.0539 81.5928 19.2939 81.5928 20.1239V27.9239C81.5928 28.2239 81.3428 28.4539 81.0328 28.4539H78.1628C78.0282 28.4465 77.9013 28.3891 77.8069 28.2928C77.7125 28.1966 77.6576 28.0686 77.6528 27.9339V20.1339C77.6528 18.4839 77.9128 16.0739 75.8828 16.0739C73.8128 16.0739 73.8928 18.4239 73.8928 20.1239V27.9239C73.8928 28.2239 73.6428 28.4539 73.3428 28.4539ZM126.453 15.4239C124.343 15.4239 124.203 18.3039 124.203 20.0939C124.203 21.8939 124.183 25.7339 126.433 25.7339C128.653 25.7339 128.763 22.6339 128.763 20.7439C128.763 19.5039 128.713 18.0239 128.333 16.8439C128.013 15.8239 127.373 15.4239 126.453 15.4239ZM126.433 12.4139C130.693 12.4139 133.003 16.0739 133.003 20.7139C133.003 25.2139 130.453 28.7639 126.433 28.7639C122.243 28.7639 119.973 25.1139 119.973 20.5639C119.973 15.9739 122.273 12.4139 126.433 12.4139ZM138.533 28.4539H135.663C135.528 28.4465 135.401 28.3891 135.307 28.2928C135.213 28.1966 135.158 28.0686 135.153 27.9339V13.1939C135.17 13.0605 135.235 12.938 135.337 12.8495C135.438 12.7611 135.568 12.7128 135.703 12.7139H138.363C138.613 12.7239 138.823 12.8939 138.873 13.1239V15.3739H138.923C139.733 13.3639 140.863 12.4039 142.843 12.4039C144.133 12.4039 145.393 12.8739 146.193 14.1439C146.943 15.3139 146.943 17.3039 146.943 18.7239V27.9839C146.921 28.1137 146.854 28.2315 146.753 28.3158C146.652 28.4002 146.524 28.4457 146.393 28.4439H143.513C143.389 28.4361 143.272 28.3861 143.181 28.3024C143.09 28.2187 143.031 28.1062 143.013 27.9839V19.9839C143.013 18.3839 143.193 16.0339 141.213 16.0339C140.513 16.0339 139.863 16.4939 139.543 17.2039C139.143 18.1039 139.083 19.0039 139.083 19.9939V27.9139C139.083 28.2139 138.833 28.4439 138.533 28.4439M103.153 28.4139C103.059 28.4918 102.944 28.5393 102.822 28.55C102.701 28.5608 102.579 28.5342 102.473 28.4739C101.513 27.6839 101.343 27.3239 100.823 26.5739C99.2528 28.1739 98.1228 28.6539 96.0928 28.6539C93.6728 28.6539 91.7928 27.1539 91.7928 24.1839C91.7583 23.1823 92.0336 22.1944 92.5812 21.3551C93.1289 20.5157 93.9221 19.8658 94.8528 19.4939C96.4128 18.8139 98.5928 18.6939 100.253 18.4939V18.1339C100.253 17.4439 100.313 16.6339 99.9028 16.0539C99.5528 15.5239 98.8828 15.3039 98.2928 15.3039C97.1928 15.3039 96.2228 15.8639 95.9828 17.0239C95.9328 17.2839 95.7428 17.5439 95.4828 17.5539L92.7028 17.2539C92.4628 17.2039 92.2028 17.0139 92.2728 16.6539C92.9128 13.2839 95.9628 12.2539 98.6928 12.2539C100.093 12.2539 101.923 12.6339 103.023 13.6939C104.423 14.9939 104.283 16.7339 104.283 18.6239V23.0939C104.283 24.4339 104.843 25.0239 105.373 25.7539C105.553 26.0139 105.593 26.3239 105.363 26.5139C104.773 27.0039 103.733 27.9139 103.163 28.4139H103.153ZM100.253 21.4139C100.253 22.5339 100.283 23.4639 99.7128 24.4639C99.2628 25.2639 98.5328 25.7639 97.7328 25.7639C96.6328 25.7639 95.9828 24.9239 95.9828 23.6839C95.9828 21.2439 98.1828 20.8039 100.253 20.8039V21.4139ZM65.4928 28.4139C65.399 28.4918 65.2836 28.5393 65.1621 28.55C65.0406 28.5608 64.9188 28.5342 64.8128 28.4739C63.8628 27.6839 63.6928 27.3239 63.1628 26.5739C61.5928 28.1739 60.4728 28.6539 58.4328 28.6539C56.0128 28.6539 54.1328 27.1539 54.1328 24.1839C54.0983 23.1823 54.3736 22.1944 54.9212 21.3551C55.4689 20.5157 56.2621 19.8658 57.1928 19.4939C58.7528 18.8139 60.9328 18.6939 62.5928 18.4939V18.1339C62.5928 17.4439 62.6528 16.6339 62.2428 16.0539C61.9028 15.5239 61.2228 15.3039 60.6428 15.3039C59.5428 15.3039 58.5628 15.8639 58.3228 17.0239C58.2728 17.2839 58.0828 17.5439 57.8228 17.5539L55.0428 17.2539C54.8128 17.2039 54.5428 17.0139 54.6128 16.6539C55.2528 13.2839 58.3128 12.2539 61.0428 12.2539C62.4428 12.2539 64.2628 12.6339 65.3628 13.6939C66.7628 14.9939 66.6328 16.7339 66.6328 18.6239V23.0939C66.6328 24.4339 67.1828 25.0239 67.7128 25.7539C67.8928 26.0139 67.9328 26.3239 67.7028 26.5139C67.1128 27.0039 66.0728 27.9139 65.5028 28.4139H65.4928ZM62.5928 21.4139C62.5928 22.5339 62.6228 23.4639 62.0628 24.4639C61.6028 25.2639 60.8828 25.7639 60.0628 25.7639C58.9628 25.7639 58.3228 24.9239 58.3228 23.6839C58.3228 21.2439 60.5228 20.8039 62.6028 20.8039V21.4139H62.5928Z" fill="#1B1A19"/>
</svg>
