<svg width="21" height="21" viewBox="0 0 21 21" fill="none" xmlns="http://www.w3.org/2000/svg">
<path d="M13.1426 1.68313C13.1426 1.00313 12.5926 0.453125 11.9076 0.453125H1.37758C1.05091 0.453122 0.737533 0.582551 0.506069 0.813079C0.274605 1.04361 0.143906 1.35645 0.142583 1.68313V16.7231C0.142006 16.9289 0.19304 17.1314 0.291015 17.3123C0.38899 17.4932 0.530775 17.6467 0.703393 17.7586C0.87601 17.8705 1.07395 17.9374 1.27908 17.953C1.48421 17.9687 1.68999 17.9326 1.87758 17.8481L6.97758 15.5831L12.4076 13.1681C12.8576 12.9681 13.1426 12.5331 13.1426 12.0431V1.68313Z" fill="url(#paint0_linear_4003_4937)"/>
<path d="M13.3926 19.9531C15.1828 19.9531 16.8997 19.242 18.1655 17.9761C19.4314 16.7102 20.1426 14.9933 20.1426 13.2031C20.1426 11.4129 19.4314 9.69602 18.1655 8.43015C16.8997 7.16428 15.1828 6.45313 13.3926 6.45312C11.6024 6.45313 9.88548 7.16428 8.61961 8.43015C7.35374 9.69602 6.64258 11.4129 6.64258 13.2031C6.64258 14.9933 7.35374 16.7102 8.61961 17.9761C9.88548 19.242 11.6024 19.9531 13.3926 19.9531Z" fill="#00D924"/>
<path d="M13.1428 6.45312V12.0431C13.1428 12.5331 12.8578 12.9731 12.4078 13.1681L7.05779 15.5481C6.68598 14.5467 6.55717 13.4712 6.68195 12.4103C6.80674 11.3493 7.18155 10.3331 7.77558 9.44528C8.36961 8.55741 9.16589 7.8232 10.099 7.30303C11.032 6.78286 12.0752 6.49157 13.1428 6.45312Z" fill="url(#paint1_linear_4003_4937)"/>
<defs>
<linearGradient id="paint0_linear_4003_4937" x1="6.64258" y1="3.62813" x2="6.64258" y2="17.9681" gradientUnits="userSpaceOnUse">
<stop stop-color="#FFD748"/>
<stop offset="1" stop-color="#FFC148"/>
</linearGradient>
<linearGradient id="paint1_linear_4003_4937" x1="9.89279" y1="6.45813" x2="9.89279" y2="15.5481" gradientUnits="userSpaceOnUse">
<stop stop-color="#00A600"/>
<stop offset="1" stop-color="#00D924"/>
</linearGradient>
</defs>
</svg>
