<svg width="201" height="41" viewBox="0 0 201 41" fill="none" xmlns="http://www.w3.org/2000/svg">
<path d="M111.995 20.1938C111.995 26.7438 106.693 32.0458 100.143 32.0458V20.1938H111.995ZM100.143 8.3418V20.1938H88.291C88.291 13.6438 93.593 8.3418 100.143 8.3418Z" fill="#0166B1"/>
<path d="M100.143 8.3418C106.693 8.3418 111.995 13.6438 111.995 20.1918H100.143V8.3418ZM88.291 20.1918H100.143V32.0448C93.593 32.0448 88.291 26.7418 88.291 20.1918Z" fill="white"/>
<path d="M100.143 8.34136V8.99136C106.319 8.99136 111.345 14.0164 111.345 20.1934H111.994C111.994 13.6484 106.689 8.34136 100.143 8.34136ZM100.143 31.3954C93.9666 31.3954 88.9406 26.3704 88.9406 20.1934H88.2906C88.2906 26.7384 93.5966 32.0454 100.143 32.0454M100.143 0.193359C89.0976 0.193359 80.1426 9.14836 80.1426 20.1934C80.1426 31.2384 89.0976 40.1934 100.143 40.1934C111.188 40.1934 120.143 31.2384 120.143 20.1934C120.143 9.14836 111.188 0.193359 100.143 0.193359ZM118.843 20.1934C118.843 30.5204 110.471 38.8934 100.143 38.8934C89.8146 38.8934 81.4426 30.5204 81.4426 20.1934C81.4426 9.86636 89.8156 1.49336 100.143 1.49336C110.47 1.49336 118.843 9.86636 118.843 20.1934Z" fill="#6F6F6F"/>
<path d="M91.5959 10.5441C92.2359 9.87611 92.5969 9.10411 91.9589 8.36611C91.6109 7.96611 91.0259 7.87911 90.5429 8.07611L90.4939 8.09411L90.5099 8.05211C90.5809 7.86211 90.6269 7.25511 90.1059 6.83711C89.9806 6.7388 89.8371 6.66627 89.6837 6.6237C89.5302 6.58114 89.3699 6.56938 89.2119 6.58911C88.6119 6.64911 88.1499 7.05711 86.8939 8.44911C86.4559 8.93911 86.0339 9.44311 85.6299 9.96011L89.0829 13.2131C90.2269 11.9551 90.6929 11.4891 91.5959 10.5441ZM87.0909 9.74911C87.7869 8.90311 88.5249 8.13711 88.8599 7.83411C88.9649 7.73811 89.0799 7.64411 89.2199 7.60511C89.4469 7.54311 89.6799 7.70311 89.7339 7.93511C89.7869 8.16711 89.6399 8.38711 89.4769 8.56911C89.1089 8.98111 87.7599 10.3821 87.7599 10.3821L87.0899 9.74811L87.0909 9.74911ZM88.4429 11.0231C88.4429 11.0231 89.7559 9.64311 90.1849 9.20311C90.3549 9.02811 90.4649 8.92211 90.5819 8.86411C90.7339 8.79111 90.8989 8.77611 91.0479 8.87411C91.1175 8.9193 91.1716 8.98475 91.2029 9.06163C91.2342 9.13851 91.2412 9.22314 91.2229 9.30411C91.1799 9.50011 91.0179 9.68811 90.8829 9.83211L89.1429 11.6821L88.4429 11.0231ZM100.538 6.66511L101.643 4.20511L101.714 3.98711L101.694 4.21511L101.81 7.50111C102.206 7.53911 102.601 7.59111 102.993 7.65711L102.813 2.78911C102.264 2.72926 101.713 2.68691 101.162 2.66211L100.073 5.34611L100.035 5.54611L99.9949 5.34611L98.9069 2.66211C98.3569 2.68511 97.8069 2.72811 97.2549 2.78911L97.0749 7.65711C97.4679 7.59211 97.8629 7.54011 98.2589 7.50111L98.3749 4.21511L98.3549 3.98711L98.4249 4.20711L99.5309 6.66511H100.538ZM109.719 11.7531C109.991 12.0431 110.382 12.5091 110.602 12.7931L114.647 10.2421C114.399 9.92242 114.144 9.60834 113.882 9.30011L111.32 10.9821L111.146 11.1321L111.276 10.9421L112.408 8.70011L111.608 7.90511L109.348 9.02911L109.158 9.15811L109.309 8.98411L111.005 6.44111C110.694 6.1793 110.377 5.92522 110.054 5.67911L107.486 9.69311C107.811 9.94111 108.24 10.3071 108.514 10.5551L110.931 9.30911L111.087 9.19611L110.973 9.34911L109.719 11.7531Z" fill="#6F6F6F"/>
</svg>
