<svg width="21" height="21" viewBox="0 0 21 21" fill="none" xmlns="http://www.w3.org/2000/svg">
<path d="M6.37806 0.45874C4.70572 0.564644 3.13876 1.31182 2.00373 2.54455C0.868694 3.77729 0.253153 5.40048 0.285384 7.07586C0.317616 8.75124 0.995132 10.3496 2.17674 11.5377C3.35835 12.7259 4.95289 13.4122 6.62806 13.4537H11.9031C12.5881 13.4537 13.1431 12.9037 13.1431 12.2137V6.95874C13.1445 6.08218 12.9685 5.2144 12.6256 4.40768C12.2828 3.60095 11.7802 2.87197 11.1481 2.26465C10.516 1.65733 9.76754 1.18424 8.94776 0.873879C8.12798 0.563515 7.25387 0.4223 6.37806 0.45874Z" fill="url(#paint0_linear_4003_4972)"/>
<path d="M13.9076 20.4481C15.5799 20.3422 17.1469 19.595 18.2819 18.3623C19.417 17.1296 20.0325 15.5064 20.0003 13.831C19.968 12.1556 19.2905 10.5573 18.1089 9.36915C16.9273 8.18098 15.3328 7.49463 13.6576 7.45312H8.38259C8.05372 7.45313 7.73832 7.58377 7.50577 7.81631C7.27323 8.04886 7.14259 8.36426 7.14259 8.69312V13.9481C7.14115 14.8247 7.31717 15.6925 7.66003 16.4992C8.00288 17.3059 8.50549 18.0349 9.13757 18.6422C9.76964 19.2495 10.5181 19.7226 11.3379 20.033C12.1577 20.3433 13.0318 20.4846 13.9076 20.4481Z" fill="#0073E6"/>
<path d="M13.1426 7.45227V12.2123C13.1426 12.5411 13.0119 12.8565 12.7794 13.0891C12.5468 13.3216 12.2314 13.4523 11.9026 13.4523H7.14258V8.69227C7.14192 8.3768 7.26153 8.07294 7.47704 7.84257C7.69255 7.61219 7.98777 7.47262 8.30258 7.45227L8.38258 7.44727H13.1426V7.45227Z" fill="url(#paint1_linear_4003_4972)"/>
<defs>
<linearGradient id="paint0_linear_4003_4972" x1="6.64306" y1="1.30874" x2="6.64306" y2="8.07874" gradientUnits="userSpaceOnUse">
<stop stop-color="#11EFE3"/>
<stop offset="0.33" stop-color="#15E8E2"/>
<stop offset="0.74" stop-color="#1FD3E0"/>
<stop offset="1" stop-color="#21CFE0"/>
</linearGradient>
<linearGradient id="paint1_linear_4003_4972" x1="10.1426" y1="8.31227" x2="10.1426" y2="14.0723" gradientUnits="userSpaceOnUse">
<stop stop-color="#00299C"/>
<stop offset="1" stop-color="#0073E6"/>
</linearGradient>
</defs>
</svg>
