<svg width="201" height="41" viewBox="0 0 201 41" fill="none" xmlns="http://www.w3.org/2000/svg">
<path d="M92.7427 21.8443C92.7562 22.951 92.5477 24.0493 92.1294 25.074C91.7112 26.0988 91.0917 27.0293 90.3077 27.8106C89.5236 28.5919 88.5909 29.208 87.5646 29.6226C86.5384 30.0371 85.4394 30.2417 84.3327 30.2243C83.2268 30.2404 82.1289 30.0348 81.1038 29.6196C80.0787 29.2044 79.1472 28.5881 78.3642 27.807C77.5812 27.0259 76.9627 26.0958 76.5451 25.0717C76.1274 24.0476 75.9192 22.9502 75.9327 21.8443C75.9151 20.7372 76.1204 19.638 76.5366 18.612C76.9527 17.586 77.5711 16.6543 78.355 15.8723C79.1388 15.0904 80.072 14.4742 81.099 14.0605C82.1259 13.6468 83.2257 13.444 84.3327 13.4643C88.9627 13.4643 92.7327 16.9843 92.7327 21.8443H92.7427ZM89.0527 21.8443C89.0527 18.8243 86.8627 16.7643 84.3327 16.7643C81.7927 16.7643 79.6027 18.8243 79.6027 21.8443C79.6027 24.8243 81.7927 26.9143 84.3327 26.9143C86.8627 26.9143 89.0527 24.8143 89.0527 21.8443Z" fill="#EA4335"/>
<path d="M110.872 21.8441C110.886 22.9508 110.677 24.0491 110.259 25.0739C109.841 26.0986 109.221 27.0292 108.437 27.8104C107.653 28.5917 106.721 29.2078 105.694 29.6224C104.668 30.0369 103.569 30.2416 102.462 30.2241C101.357 30.2402 100.259 30.0346 99.2336 29.6194C98.2085 29.2042 97.2769 28.5879 96.4939 27.8068C95.711 27.0257 95.0924 26.0956 94.6748 25.0715C94.2572 24.0474 94.0489 22.95 94.0624 21.8441C94.0462 20.7374 94.2525 19.6388 94.6691 18.6134C95.0858 17.5881 95.7042 16.6569 96.4878 15.8752C97.2713 15.0936 98.204 14.4773 99.2303 14.0631C100.257 13.6489 101.356 13.4452 102.462 13.4641C107.092 13.4641 110.862 16.9841 110.862 21.8441H110.872ZM107.192 21.8441C107.192 18.8241 104.992 16.7641 102.462 16.7641C99.9224 16.7641 97.7324 18.8241 97.7324 21.8441C97.7324 24.8241 99.9324 26.9141 102.462 26.9141C105.002 26.9141 107.192 24.8141 107.192 21.8441Z" fill="#FBBC05"/>
<path d="M128.243 13.9629V29.0129C128.243 35.1929 124.593 37.7229 120.283 37.7229C118.693 37.7332 117.136 37.2685 115.813 36.3883C114.489 35.5082 113.458 34.2527 112.853 32.7829L116.053 31.4529C116.383 32.3124 116.961 33.054 117.715 33.5831C118.468 34.1121 119.362 34.4045 120.283 34.4229C123.043 34.4229 124.753 32.7229 124.753 29.5229V28.3129H124.623C124.07 28.9314 123.389 29.4218 122.627 29.7499C121.866 30.0781 121.042 30.2361 120.213 30.2129C116.013 30.2129 112.183 26.5629 112.183 21.8729C112.183 17.1429 116.023 13.4629 120.213 13.4629C122.213 13.4629 123.793 14.3429 124.623 15.3329H124.753V13.9729H128.253L128.243 13.9629ZM125.013 21.8629C125.013 18.9229 123.043 16.7629 120.543 16.7629C118.003 16.7629 115.873 18.9229 115.873 21.8629C115.873 24.7929 118.003 26.9129 120.543 26.9129C123.043 26.9129 125.013 24.7929 125.013 21.8729V21.8629Z" fill="#4285F4"/>
<path d="M134.002 5.1543V29.6943H130.412V5.1543H134.002Z" fill="#34A853"/>
<path d="M147.993 24.5931L150.853 26.4931C150.087 27.6438 149.048 28.5862 147.827 29.2356C146.607 29.8849 145.245 30.2208 143.863 30.2131C142.761 30.2282 141.668 30.0212 140.649 29.6045C139.629 29.1878 138.704 28.5699 137.928 27.7878C137.153 27.0057 136.543 26.0753 136.134 25.0522C135.726 24.0292 135.528 22.9343 135.553 21.8331C135.553 16.8531 139.133 13.4531 143.453 13.4531C147.803 13.4531 149.933 16.9131 150.623 18.7831L151.003 19.7431L139.803 24.3731C140.147 25.1547 140.718 25.8147 141.442 26.2677C142.166 26.7206 143.009 26.9455 143.863 26.9131C145.743 26.9131 147.043 25.9931 147.993 24.5931ZM139.193 21.5831L146.693 18.4731C146.273 17.4231 145.043 16.6931 143.583 16.6931C142.972 16.7211 142.373 16.8705 141.821 17.1325C141.269 17.3945 140.775 17.7639 140.367 18.2192C139.959 18.6745 139.646 19.2064 139.446 19.784C139.246 20.3616 139.164 20.9732 139.203 21.5831H139.193Z" fill="#EA4335"/>
<path d="M62.3426 19.6634V16.0934H74.3226C74.4326 16.7134 74.4926 17.4434 74.4926 18.2434C74.4926 20.9034 73.7626 24.2034 71.4126 26.5534C69.1326 28.9334 66.2126 30.2034 62.3426 30.2034C55.1726 30.2034 49.1426 24.3634 49.1426 17.2034C49.1426 10.0234 55.1726 4.19336 62.3426 4.19336C66.3126 4.19336 69.1426 5.75336 71.2626 7.78336L68.7526 10.2834C67.0342 8.62498 64.7305 7.71213 62.3426 7.74336C61.1055 7.74191 59.8805 7.9865 58.7388 8.46289C57.5971 8.93929 56.5615 9.63797 55.6924 10.5183C54.8232 11.3986 54.1378 12.443 53.6761 13.5907C53.2143 14.7383 52.9853 15.9664 53.0026 17.2034C53.0026 22.4434 57.1026 26.6634 62.3426 26.6634C63.5586 26.7136 64.7717 26.5082 65.9034 26.0604C67.0351 25.6125 68.0602 24.9322 68.9126 24.0634C69.9126 23.0534 70.5726 21.6134 70.8326 19.6634H62.3326H62.3426Z" fill="#4285F4"/>
</svg>
