<svg width="21" height="21" viewBox="0 0 21 21" fill="none" xmlns="http://www.w3.org/2000/svg">
<path d="M3.95238 14.1931L3.94238 14.1781C3.74397 13.9791 3.62034 13.7177 3.59238 13.4381C3.57298 13.2612 3.59173 13.0822 3.64738 12.9131C3.67238 12.7731 3.71238 12.6431 3.76738 12.5281L3.80738 12.4431L7.47738 5.95312H18.4024C18.7205 5.95761 19.0251 6.08227 19.2551 6.30207C19.4851 6.52187 19.6235 6.82055 19.6424 7.13812L19.6474 7.21812V18.6781C19.652 18.9999 19.5334 19.3112 19.3159 19.5482C19.0983 19.7853 18.7983 19.9302 18.4774 19.9531L18.3974 19.9581H9.64238C9.76301 19.8263 9.85399 19.6702 9.90919 19.5003C9.96439 19.3304 9.98253 19.1506 9.96238 18.9731C9.92738 18.6431 9.74738 18.4281 9.48738 18.2381L9.41238 18.1881L4.10238 14.3231L4.03238 14.2731V14.2681L4.10238 14.3181C4.05506 14.2862 4.00995 14.2511 3.96738 14.2131L3.95238 14.1981V14.1931Z" fill="url(#paint0_linear_4003_5007)"/>
<path d="M11.1676 2.00305C11.5176 1.92805 11.8726 2.00305 12.1626 2.20805L15.4426 4.56805C15.6577 4.72258 15.8182 4.94144 15.9009 5.19306C15.9835 5.44468 15.9842 5.71606 15.9026 5.96805V5.95305L11.6526 18.9531L11.6276 19.0531L11.6126 19.0931L11.5976 19.1381L11.5226 19.2981L11.5126 19.3181L11.4176 19.4631L11.4026 19.4831C11.3668 19.5269 11.3284 19.5687 11.2876 19.6081L11.2726 19.6181C11.1871 19.6996 11.0892 19.7671 10.9826 19.8181L10.9676 19.8331C10.9176 19.8581 10.8676 19.8831 10.8126 19.8981H10.7876L10.6226 19.9381H10.5976C10.5381 19.9478 10.4779 19.9528 10.4176 19.9531H1.90762C1.74065 19.9531 1.57533 19.92 1.4212 19.8558C1.26707 19.7916 1.12717 19.6975 1.00957 19.579C0.891976 19.4605 0.799006 19.3199 0.736025 19.1652C0.673044 19.0106 0.641298 18.845 0.642618 18.6781V7.22806C0.642618 6.52306 1.20762 5.95305 1.90762 5.95305H8.44262L10.3426 2.60306C10.503 2.3247 10.7644 2.11879 11.0726 2.02806L11.1626 2.00305H11.1676Z" fill="#0073E6"/>
<path d="M15.8326 5.95312L11.6476 18.9531L11.6376 19.0031L11.6276 19.0531L11.6126 19.0931L11.5976 19.1381L11.5626 19.2181L11.5226 19.2981L11.5126 19.3181L11.4626 19.3931L11.4176 19.4631L11.4026 19.4831L11.3476 19.5481L11.2876 19.6081L11.2726 19.6181C11.2326 19.6631 11.1876 19.6981 11.1426 19.7331L11.0676 19.7831L10.9826 19.8231L10.9676 19.8331L10.8926 19.8681L10.8126 19.8981H10.7876L10.7076 19.9231L10.6576 19.9281L10.7076 19.8781C10.9076 19.6231 11.0026 19.2931 10.9626 18.9681C10.9276 18.6381 10.7476 18.4231 10.4876 18.2331L10.4126 18.1831L5.10262 14.3181L5.03262 14.2681C4.9862 14.228 4.94276 14.1845 4.90262 14.1381L4.88262 14.1131C4.86176 14.0905 4.84175 14.0672 4.82262 14.0431L4.81262 14.0231L4.79762 14.0031C4.76577 13.9552 4.73737 13.9051 4.71262 13.8531L4.69762 13.8231C4.66641 13.7555 4.64131 13.6852 4.62262 13.6131L4.61762 13.5781L4.60762 13.5281L4.60262 13.4981C4.57661 13.3298 4.58511 13.158 4.62762 12.9931L4.63762 12.9481C4.64393 12.9313 4.6506 12.9146 4.65762 12.8981C4.67262 12.7731 4.70762 12.6481 4.76262 12.5281L4.81262 12.4431L8.47262 5.95312H15.8276H15.8326Z" fill="url(#paint1_linear_4003_5007)"/>
<defs>
<linearGradient id="paint0_linear_4003_5007" x1="11.6024" y1="6.79312" x2="11.6024" y2="20.7931" gradientUnits="userSpaceOnUse">
<stop offset="0.1" stop-color="#FF80FF"/>
<stop offset="0.39" stop-color="#FF7BF9"/>
<stop offset="0.77" stop-color="#FF6EEA"/>
<stop offset="1" stop-color="#FF62DC"/>
</linearGradient>
<linearGradient id="paint1_linear_4003_5007" x1="15.8326" y1="14.9181" x2="5.95262" y2="14.9181" gradientUnits="userSpaceOnUse">
<stop stop-color="#0073E6"/>
<stop offset="1" stop-color="#00299C"/>
</linearGradient>
</defs>
</svg>
