<svg width="69" height="34" viewBox="0 0 69 34" fill="none" xmlns="http://www.w3.org/2000/svg">
<path fill-rule="evenodd" clip-rule="evenodd" d="M63.7826 18.9226H55.7226C55.9126 20.8526 57.3226 21.4726 58.9226 21.4726C60.5626 21.4726 61.8826 21.1026 62.9726 20.5226V23.8426C61.5893 24.6385 60.0066 25.0203 58.4126 24.9426C54.4026 24.9426 51.5826 22.4426 51.5826 17.4626C51.5826 13.2726 53.9726 9.94258 57.8826 9.94258C61.8026 9.94258 63.8426 13.2226 63.8426 17.4426C63.8426 17.8426 63.8026 18.7026 63.7826 18.9226ZM57.8626 13.3026C56.8326 13.3026 55.6926 14.0326 55.6926 15.8826H59.9426C59.9426 14.0326 58.8726 13.3026 57.8626 13.3026ZM45.0926 24.9426C43.6526 24.9426 42.7726 24.3426 42.1926 23.9026L42.1726 28.5326L38.0526 29.4026V10.2126H41.8126L41.8926 11.2326C42.7647 10.4054 43.9206 9.94373 45.1226 9.94258C48.0226 9.94258 50.7426 12.5426 50.7426 17.3426C50.7426 22.5726 48.0426 24.9426 45.0926 24.9426ZM44.1426 13.5926C43.1926 13.5926 42.6026 13.9326 42.1726 14.4026L42.1926 20.5226C42.5926 20.9626 43.1726 21.3026 44.1426 21.3026C45.6626 21.3026 46.6826 19.6526 46.6826 17.4326C46.6826 15.2826 45.6426 13.5926 44.1426 13.5926ZM32.3826 10.2126H36.5126V24.6526H32.3826V10.2126ZM32.3826 5.51258L36.5126 4.64258V8.00258L32.3826 8.88258V5.52258V5.51258ZM28.0626 14.8626V24.6526H23.9426V10.2126H27.6426L27.7626 11.4326C28.7626 9.66258 30.8326 10.0226 31.3826 10.2126V14.0026C30.8626 13.8326 29.0926 13.5726 28.0626 14.8626ZM19.5126 19.5826C19.5126 22.0126 22.1126 21.2626 22.6326 21.0426V24.4026C22.0826 24.7026 21.0926 24.9426 19.7426 24.9426C19.1799 24.959 18.6198 24.8608 18.0963 24.6539C17.5728 24.447 17.0969 24.1358 16.6974 23.7392C16.298 23.3425 15.9834 22.8688 15.7729 22.3468C15.5623 21.8247 15.4601 21.2653 15.4726 20.7026L15.4826 7.53258L19.5026 6.67258V10.2126H22.6426V13.7426H19.5126V19.5926V19.5826ZM14.6026 20.2826C14.6026 23.2526 12.2926 24.9426 8.87258 24.9426C7.3379 24.9414 5.81983 24.6249 4.41258 24.0126V20.0826C5.79258 20.8326 7.51258 21.3926 8.87258 21.3926C9.79258 21.3926 10.4026 21.1526 10.4026 20.3926C10.4026 18.4126 4.14258 19.1526 4.14258 14.5926C4.14258 11.6826 6.42258 9.94258 9.76258 9.94258C11.1226 9.94258 12.4826 10.1426 13.8526 10.6926V14.5726C12.5865 13.9063 11.1829 13.5434 9.75258 13.5126C8.89258 13.5126 8.31258 13.7626 8.31258 14.4126C8.31258 16.2626 14.6026 15.3826 14.6026 20.2926V20.2826Z" fill="white"/>
</svg>
