<svg width="201" height="41" viewBox="0 0 201 41" fill="none" xmlns="http://www.w3.org/2000/svg">
<path d="M123.721 36.1592H122.202V35.3862H126.078V36.1592H124.559V40.0752H123.721V36.1592ZM118.416 36.1592H116.91V35.3862H120.774V36.1592H119.268V40.0752H118.416V36.1592ZM109.117 35.3862H108.279V40.0762H109.117V35.3862ZM104.35 37.4952C104.559 37.4952 104.729 37.4302 104.847 37.2992C104.969 37.1673 105.035 36.9935 105.031 36.8142C105.035 36.6309 104.969 36.4531 104.847 36.3162C104.784 36.2537 104.708 36.2051 104.625 36.1736C104.541 36.1421 104.452 36.1283 104.363 36.1332H103.472V37.4952H104.35ZM102.66 35.3862H104.35C104.625 35.3862 104.874 35.4262 105.07 35.5172C105.243 35.5896 105.398 35.6987 105.525 35.8368C105.651 35.9749 105.746 36.1388 105.803 36.3172C105.856 36.4872 105.882 36.6442 105.882 36.7872C105.882 37.0762 105.817 37.3512 105.699 37.5742C105.567 37.8066 105.372 37.9971 105.136 38.1242L106.17 40.0882H105.214L104.31 38.2422H103.472V40.0882H102.66V35.3862ZM98.9403 37.4952C99.1503 37.4952 99.3203 37.4302 99.4383 37.2992C99.5596 37.1672 99.6252 36.9934 99.6213 36.8142C99.6252 36.6311 99.5598 36.4533 99.4383 36.3162C99.3747 36.2536 99.2987 36.205 99.2152 36.1735C99.1317 36.142 99.0425 36.1282 98.9533 36.1332H98.0633V37.4952H98.9403ZM97.2383 35.3862H98.9284C99.2024 35.3862 99.4513 35.4262 99.6483 35.5172C99.8443 35.6092 100.001 35.7142 100.119 35.8572C100.237 36.0022 100.329 36.1462 100.381 36.3172C100.448 36.5232 100.474 36.7404 100.456 36.9563C100.438 37.1721 100.377 37.3822 100.276 37.5742C100.144 37.8067 99.9489 37.9973 99.7133 38.1242L100.748 40.0882H99.7924L98.8884 38.2422H98.0373V40.0882H97.2243V35.3862H97.2383ZM93.9113 38.1502L93.3214 36.3302L92.7194 38.1502H93.9113ZM92.9024 35.3862H93.7673L95.4574 40.0762H94.5134L94.1203 38.8832H92.4574L92.0643 40.0752H91.1863L92.9024 35.3862ZM85.0704 35.3862H85.8563L87.1924 37.6002L88.5154 35.3862H89.3003L89.5103 40.0762H88.6983L88.5414 36.8272L87.3754 38.7392H86.9694L85.7904 36.8662L85.6463 40.0762H84.8604L85.0704 35.3862ZM113.479 39.3682C113.683 39.3733 113.884 39.3309 114.069 39.2445C114.253 39.158 114.414 39.0299 114.54 38.8702C114.671 38.7132 114.762 38.5422 114.828 38.3332C114.893 38.1362 114.933 37.9272 114.933 37.7042C114.933 37.4812 114.893 37.2722 114.828 37.0622C114.769 36.8699 114.671 36.6919 114.54 36.5392C114.419 36.3855 114.261 36.2639 114.081 36.1852C113.894 36.0943 113.688 36.0494 113.479 36.0542C113.256 36.0542 113.06 36.0942 112.876 36.1842C112.702 36.2746 112.547 36.3988 112.422 36.5495C112.296 36.7003 112.201 36.8745 112.143 37.0622C112.004 37.4741 112.004 37.9203 112.143 38.3322C112.208 38.5292 112.3 38.7122 112.431 38.8702C112.562 39.0272 112.706 39.1452 112.876 39.2372C113.06 39.3152 113.256 39.3682 113.479 39.3682ZM113.479 40.1932C113.151 40.1932 112.85 40.1272 112.562 39.9962C112.287 39.8688 112.038 39.6911 111.828 39.4722C111.614 39.2444 111.445 38.9776 111.331 38.6862C111.087 38.0633 111.087 37.3711 111.331 36.7482C111.449 36.4472 111.619 36.1852 111.828 35.9622C112.038 35.7402 112.274 35.5692 112.562 35.4382C112.85 35.3082 113.151 35.2422 113.479 35.2422C113.806 35.2422 114.107 35.3072 114.396 35.4382C114.671 35.5692 114.919 35.7402 115.129 35.9622C115.339 36.1852 115.509 36.4472 115.627 36.7482C115.872 37.3711 115.872 38.0633 115.627 38.6862C115.514 38.9778 115.344 39.2447 115.129 39.4722C114.923 39.6951 114.674 39.8735 114.396 39.9962C114.109 40.1276 113.796 40.1948 113.479 40.1932Z" fill="black"/>
<path d="M107.677 30.6974H115.208L102.609 0.677359L96.2826 3.74336L100.683 14.1954L98.6396 19.0554L90.7546 0.193359L84.3636 3.11336L89.4976 15.1634L89.4716 15.2164C86.3016 22.8264 82.4246 24.9084 82.0446 25.0524C80.8395 25.5484 79.5278 25.7288 78.2336 25.5764L75.1426 32.2044C76.1646 32.7934 77.3166 33.1344 78.5346 33.1344C80.0806 33.1344 81.4946 32.5964 82.6746 31.7064L82.6606 31.7324C82.6606 31.7324 85.5806 30.2524 88.7116 22.1444C88.7116 22.1314 89.8646 19.5514 90.4796 17.9014L90.5456 17.7184L96.0456 30.7104H103.565L99.6876 21.5684L101.744 16.7094L107.677 30.6974Z" fill="#A11D2B"/>
</svg>
