<svg width="21" height="21" viewBox="0 0 21 21" fill="none" xmlns="http://www.w3.org/2000/svg">
<path d="M17.4476 6.09404C17.3052 5.85987 17.0914 5.6776 16.8376 5.57404L4.41262 0.554043C4.21671 0.474188 4.00412 0.443937 3.79371 0.465976C3.58331 0.488016 3.3816 0.561662 3.20649 0.680379C3.03138 0.799096 2.88829 0.95921 2.78993 1.14651C2.69156 1.33381 2.64096 1.54249 2.64262 1.75404V7.95404C2.64262 8.47904 2.96262 8.95404 3.44762 9.15404L6.66762 10.454L17.4476 14.814C17.5776 14.614 17.6476 14.374 17.6426 14.134V6.77404C17.6426 6.53404 17.5776 6.29404 17.4476 6.08904V6.09404Z" fill="url(#paint0_linear_4003_4901)"/>
<path d="M17.4576 6.09375L6.67259 10.4538L3.44759 11.7538C3.20895 11.8506 3.00476 12.0166 2.8613 12.2305C2.71783 12.4443 2.64166 12.6962 2.64259 12.9538V19.1637C2.64297 19.3744 2.69496 19.5818 2.79401 19.7678C2.89305 19.9538 3.03614 20.1126 3.21076 20.2305C3.38538 20.3484 3.58622 20.4217 3.79573 20.4441C4.00523 20.4665 4.21702 20.4371 4.41259 20.3588L16.8426 15.3337C17.0926 15.2288 17.3076 15.0487 17.4476 14.8137C17.5776 14.6087 17.6476 14.3738 17.6426 14.1338V6.77375C17.6426 6.53375 17.5826 6.29875 17.4576 6.09375Z" fill="#9966FF"/>
<path d="M17.4529 6.09375L17.5029 6.17875C17.5929 6.36375 17.6429 6.56375 17.6429 6.77375V6.75875V14.1338C17.6429 14.3738 17.5779 14.6087 17.4479 14.8137L6.67285 10.4538L17.4529 6.09375Z" fill="url(#paint1_linear_4003_4901)"/>
<defs>
<linearGradient id="paint0_linear_4003_4901" x1="10.1426" y1="2.51904" x2="10.1426" y2="11.019" gradientUnits="userSpaceOnUse">
<stop stop-color="#11EFE3"/>
<stop offset="1" stop-color="#21CFE0"/>
</linearGradient>
<linearGradient id="paint1_linear_4003_4901" x1="17.6429" y1="6.09375" x2="17.6429" y2="14.8137" gradientUnits="userSpaceOnUse">
<stop stop-color="#0048E5"/>
<stop offset="1" stop-color="#9B66FF"/>
</linearGradient>
</defs>
</svg>
