<svg width="201" height="41" viewBox="0 0 201 41" fill="none" xmlns="http://www.w3.org/2000/svg">
<path d="M94.9231 4.56736C96.7691 2.65536 99.3411 1.44636 102.176 1.44636C105.956 1.44636 109.231 3.55636 110.989 6.67636C112.559 5.9762 114.259 5.61697 115.978 5.62236C122.791 5.62236 128.286 11.1824 128.286 18.0394C128.286 24.8964 122.769 30.4574 115.978 30.4574C115.166 30.4563 114.357 30.3753 113.561 30.2154C112.778 31.6149 111.637 32.7804 110.253 33.5917C108.87 34.4029 107.296 34.8305 105.692 34.8304C104.33 34.8295 102.985 34.5219 101.758 33.9304C100.198 37.6004 96.5501 40.1934 92.3081 40.1934C87.8901 40.1934 84.1101 37.4024 82.6591 33.4684C82.0155 33.6006 81.3601 33.6669 80.7031 33.6664C75.4291 33.6664 71.1651 29.3584 71.1651 24.0174C71.1613 22.33 71.5998 20.6711 72.4367 19.2059C73.2736 17.7407 74.4798 16.5203 75.9351 15.6664C75.3218 14.2744 75.007 12.7694 75.0111 11.2484C74.9891 5.16036 79.9781 0.193359 86.0881 0.193359C89.6921 0.193359 92.9011 1.90736 94.9231 4.56736Z" fill="#00A1E0"/>
<path d="M79.429 20.9404L79.671 20.3034C79.715 20.1934 79.781 20.2374 79.824 20.2594C79.89 20.3034 79.934 20.3254 80.022 20.3914C80.704 20.8314 81.341 20.8314 81.539 20.8314C82.044 20.8314 82.374 20.5674 82.374 20.1934V20.1714C82.374 19.7754 81.89 19.6214 81.319 19.4464L81.187 19.4024C80.417 19.1824 79.583 18.8524 79.583 17.8854V17.8634C79.583 16.9404 80.33 16.2814 81.407 16.2814H81.517C82.154 16.2814 82.747 16.4574 83.187 16.7424C83.231 16.7644 83.275 16.8084 83.253 16.8744C83.231 16.9404 83.033 17.4464 83.011 17.5124C82.967 17.6224 82.857 17.5564 82.857 17.5564C82.3949 17.3171 81.8833 17.189 81.363 17.1824C80.901 17.1824 80.616 17.4244 80.616 17.7534V17.7754C80.616 18.1494 81.121 18.3254 81.693 18.5014L81.803 18.5234C82.572 18.7644 83.385 19.0944 83.385 20.0394V20.0614C83.385 21.0724 82.66 21.6884 81.495 21.6884C80.923 21.6884 80.374 21.6004 79.78 21.2924C79.67 21.2264 79.56 21.1824 79.45 21.0944C79.429 21.0504 79.385 21.0284 79.429 20.9404ZM96.572 20.9404L96.813 20.3034C96.857 20.1934 96.945 20.2374 96.967 20.2594C97.033 20.3034 97.077 20.3254 97.165 20.3914C97.846 20.8314 98.484 20.8314 98.682 20.8314C99.187 20.8314 99.517 20.5674 99.517 20.1934V20.1714C99.517 19.7754 99.033 19.6214 98.462 19.4464L98.33 19.4024C97.56 19.1824 96.726 18.8524 96.726 17.8854V17.8634C96.726 16.9404 97.473 16.2814 98.55 16.2814H98.66C99.297 16.2814 99.89 16.4574 100.33 16.7424C100.374 16.7644 100.418 16.8084 100.396 16.8744C100.374 16.9404 100.176 17.4464 100.154 17.5124C100.11 17.6224 100 17.5564 100 17.5564C99.5379 17.3171 99.0263 17.189 98.506 17.1824C98.044 17.1824 97.759 17.4244 97.759 17.7534V17.7754C97.759 18.1494 98.264 18.3254 98.835 18.5014L98.945 18.5234C99.715 18.7644 100.528 19.0944 100.528 20.0394V20.0614C100.528 21.0724 99.802 21.6884 98.638 21.6884C98.066 21.6884 97.517 21.6004 96.923 21.2924C96.813 21.2264 96.703 21.1824 96.593 21.0944C96.593 21.0504 96.55 21.0284 96.572 20.9404ZM109.275 17.9304C109.363 18.2594 109.429 18.6104 109.429 18.9844C109.429 19.3584 109.385 19.7094 109.275 20.0394C109.187 20.3694 109.033 20.6544 108.835 20.8964C108.638 21.1384 108.374 21.3364 108.088 21.4684C107.754 21.6056 107.394 21.673 107.033 21.6664C106.638 21.6664 106.286 21.6004 105.978 21.4684C105.686 21.3416 105.43 21.1452 105.231 20.8964C105.025 20.6457 104.875 20.3533 104.792 20.0394C104.695 19.696 104.643 19.3413 104.638 18.9844C104.638 18.6114 104.682 18.2594 104.792 17.9294C104.879 17.5994 105.033 17.3144 105.231 17.0724C105.429 16.8304 105.693 16.6324 105.978 16.5014C106.286 16.3694 106.638 16.2814 107.033 16.2814C107.429 16.2814 107.781 16.3474 108.088 16.5014C108.396 16.6334 108.638 16.8314 108.835 17.0724C109.033 17.3144 109.187 17.6014 109.275 17.9304ZM108.286 18.9624C108.286 18.3914 108.176 17.9524 107.978 17.6444C107.781 17.3364 107.451 17.1824 107.033 17.1824C106.594 17.1824 106.286 17.3364 106.088 17.6444C105.89 17.9514 105.781 18.3914 105.781 18.9624C105.781 19.5344 105.89 19.9734 106.088 20.3024C106.286 20.6114 106.594 20.7644 107.033 20.7644C107.473 20.7644 107.781 20.6114 107.978 20.3034C108.198 19.9954 108.286 19.5334 108.286 18.9634V18.9624ZM117.319 20.6114L117.561 21.2704C117.583 21.3584 117.517 21.3804 117.517 21.3804C117.143 21.5344 116.638 21.6224 116.132 21.6224C115.275 21.6224 114.638 21.3804 114.198 20.8964C113.759 20.4134 113.539 19.7534 113.539 18.9404C113.539 18.5674 113.583 18.2154 113.693 17.8854C113.803 17.5554 113.956 17.2704 114.176 17.0284C114.396 16.7864 114.66 16.5884 114.967 16.4574C115.315 16.3107 115.689 16.2359 116.066 16.2374C116.352 16.2374 116.594 16.2594 116.792 16.2814C117.011 16.3254 117.319 16.3914 117.451 16.4574C117.473 16.4574 117.539 16.5014 117.517 16.5674C117.429 16.8304 117.363 17.0074 117.275 17.2264C117.231 17.3364 117.165 17.2924 117.165 17.2924C116.832 17.1828 116.483 17.1307 116.132 17.1384C115.649 17.1384 115.275 17.2924 115.055 17.6224C114.814 17.9294 114.682 18.3474 114.682 18.9184C114.682 19.5344 114.835 19.9734 115.099 20.2584C115.363 20.5454 115.737 20.6774 116.22 20.6774C116.418 20.6774 116.594 20.6554 116.748 20.6334C116.901 20.6114 117.055 20.5674 117.209 20.5014C117.187 20.5454 117.275 20.5234 117.319 20.6114ZM122.308 17.7314C122.528 18.4794 122.418 19.1164 122.396 19.1604C122.396 19.2484 122.308 19.2484 122.308 19.2484H118.989C119.011 19.7534 119.121 20.1054 119.385 20.3474C119.627 20.5894 120 20.7424 120.528 20.7424C121.319 20.7424 121.649 20.5894 121.89 20.5014C121.89 20.5014 121.978 20.4794 122.022 20.5674L122.242 21.1824C122.286 21.2924 122.242 21.3144 122.22 21.3364C122.022 21.4464 121.517 21.6664 120.55 21.6664C120.088 21.6664 119.671 21.6004 119.341 21.4684C119.024 21.3511 118.739 21.163 118.506 20.9184C118.291 20.6749 118.126 20.3911 118.022 20.0834C117.914 19.7423 117.862 19.386 117.868 19.0284C117.868 18.6544 117.912 18.3034 118.022 17.9734C118.11 17.6434 118.264 17.3584 118.462 17.1164C118.66 16.8744 118.923 16.6764 119.231 16.5454C119.539 16.3914 119.912 16.3254 120.33 16.3254C120.682 16.3254 121.011 16.3914 121.275 16.5234C121.473 16.6114 121.693 16.7644 121.912 17.0064C122.022 17.0944 122.22 17.4234 122.308 17.7314ZM119.011 18.4354H121.363C121.341 18.1274 121.275 17.8634 121.143 17.6444C120.945 17.3364 120.66 17.1604 120.22 17.1604C119.781 17.1604 119.473 17.3364 119.275 17.6444C119.143 17.8414 119.077 18.1054 119.011 18.4344V18.4354ZM95.781 17.7314C96.001 18.4794 95.891 19.1164 95.891 19.1604C95.891 19.2484 95.802 19.2484 95.802 19.2484H92.484C92.506 19.7534 92.616 20.1054 92.879 20.3474C93.121 20.5894 93.495 20.7424 94.022 20.7424C94.813 20.7424 95.143 20.5894 95.385 20.5014C95.385 20.5014 95.473 20.4794 95.517 20.5674L95.737 21.1824C95.78 21.2924 95.737 21.3144 95.715 21.3364C95.517 21.4464 95.011 21.6664 94.045 21.6664C93.583 21.6664 93.165 21.6004 92.835 21.4684C92.5184 21.3511 92.2328 21.163 92 20.9184C91.7852 20.6748 91.621 20.391 91.517 20.0834C91.409 19.7423 91.357 19.386 91.363 19.0284C91.363 18.6544 91.407 18.3034 91.517 17.9734C91.605 17.6434 91.759 17.3584 91.957 17.1164C92.154 16.8744 92.417 16.6764 92.726 16.5454C93.033 16.3914 93.406 16.3254 93.824 16.3254C94.176 16.3254 94.506 16.3914 94.77 16.5234C94.967 16.6114 95.187 16.7644 95.407 17.0064C95.495 17.0944 95.715 17.4244 95.78 17.7324L95.781 17.7314ZM92.484 18.4354H94.857C94.835 18.1274 94.77 17.8634 94.637 17.6444C94.44 17.3364 94.154 17.1604 93.715 17.1604C93.275 17.1604 92.967 17.3364 92.77 17.6444C92.616 17.8414 92.55 18.1054 92.484 18.4344V18.4354ZM86.66 18.2594C86.66 18.2594 86.923 18.2814 87.21 18.3254V18.1934C87.21 17.7534 87.121 17.5334 86.945 17.4024C86.77 17.2704 86.484 17.1824 86.132 17.1824C86.132 17.1824 85.319 17.1824 84.682 17.5124C84.66 17.5344 84.638 17.5344 84.638 17.5344C84.638 17.5344 84.55 17.5564 84.528 17.4904L84.286 16.8524C84.242 16.7644 84.308 16.7204 84.308 16.7204C84.616 16.4794 85.319 16.3474 85.319 16.3474C85.6098 16.2962 85.9039 16.2668 86.199 16.2594C86.858 16.2594 87.363 16.4134 87.715 16.7214C88.066 17.0284 88.242 17.5114 88.242 18.1934V21.2264C88.242 21.2264 88.242 21.3144 88.176 21.3364C88.176 21.3364 88.044 21.3804 87.934 21.4024C87.824 21.4244 87.429 21.5124 87.099 21.5564C86.769 21.6224 86.439 21.6444 86.089 21.6444C85.759 21.6444 85.473 21.6224 85.209 21.5564C84.967 21.5016 84.7365 21.4048 84.528 21.2704C84.3422 21.1311 84.1915 20.9503 84.088 20.7424C83.978 20.5454 83.934 20.2814 83.934 19.9954C83.934 19.7104 84 19.4454 84.11 19.2264C84.22 19.0064 84.396 18.8304 84.594 18.6764C84.792 18.5234 85.034 18.4354 85.275 18.3464C85.5404 18.2764 85.8135 18.2397 86.088 18.2374C86.352 18.2594 86.528 18.2594 86.66 18.2594ZM85.341 20.5894C85.341 20.5894 85.649 20.8304 86.308 20.7864C86.791 20.7644 87.209 20.6764 87.209 20.6764V19.1604C87.209 19.1604 86.791 19.0944 86.308 19.0944C85.627 19.0944 85.341 19.3364 85.341 19.3364C85.143 19.4684 85.055 19.6884 85.055 19.9734C85.055 20.1494 85.099 20.3034 85.165 20.4134C85.187 20.4574 85.209 20.5014 85.341 20.5894ZM113.363 16.5674C113.341 16.6544 113.165 17.1174 113.121 17.2704C113.099 17.3364 113.055 17.3584 112.989 17.3584C112.989 17.3584 112.792 17.3144 112.616 17.3144C112.506 17.3144 112.33 17.3364 112.176 17.3804C112.021 17.4304 111.879 17.5129 111.759 17.6224C111.627 17.7324 111.539 17.9074 111.473 18.1054C111.407 18.3034 111.363 18.6334 111.363 18.9854V21.4454C111.363 21.5124 111.319 21.5554 111.253 21.5554H110.374C110.308 21.5554 110.264 21.5124 110.264 21.4454V16.5014C110.264 16.4354 110.308 16.3914 110.352 16.3914H111.209C111.275 16.3914 111.297 16.4354 111.297 16.5014V16.8964C111.429 16.7204 111.649 16.5664 111.846 16.4794C112.044 16.3914 112.286 16.3254 112.704 16.3474C112.923 16.3694 113.209 16.4134 113.253 16.4354C113.341 16.4574 113.385 16.4794 113.363 16.5674ZM105.209 14.2814C105.231 14.2814 105.297 14.3254 105.275 14.3914L105.011 15.0944C104.989 15.1384 104.967 15.1824 104.857 15.1384C104.835 15.1384 104.792 15.1164 104.682 15.0944C104.616 15.0724 104.506 15.0724 104.418 15.0724C104.299 15.0748 104.181 15.0895 104.066 15.1164C103.955 15.1446 103.856 15.206 103.781 15.2924C103.678 15.3925 103.596 15.5117 103.539 15.6434C103.451 15.885 103.392 16.136 103.363 16.3914H104.418C104.506 16.3914 104.528 16.4354 104.528 16.5014L104.396 17.1824C104.374 17.2924 104.286 17.2704 104.286 17.2704H103.187L102.484 21.5124C102.396 21.9524 102.308 22.3254 102.198 22.6324C102.088 22.9404 101.956 23.1604 101.759 23.3804C101.583 23.5784 101.385 23.7314 101.143 23.7974C100.923 23.8854 100.638 23.9294 100.33 23.9294C100.176 23.9294 100.022 23.9294 99.846 23.8854C99.7404 23.8692 99.6372 23.8396 99.539 23.7974C99.495 23.7754 99.473 23.7314 99.495 23.6654C99.517 23.6004 99.715 23.0724 99.737 22.9854C99.78 22.8964 99.847 22.9404 99.847 22.9404C99.912 22.9624 99.957 22.9844 100.022 23.0064C100.11 23.0284 100.198 23.0284 100.286 23.0284C100.44 23.0284 100.572 23.0064 100.682 22.9624C100.814 22.9184 100.901 22.8304 100.989 22.7204C101.077 22.6104 101.143 22.4574 101.231 22.2594C101.312 21.9923 101.378 21.7209 101.429 21.4464L102.176 17.2924H101.451C101.363 17.2924 101.341 17.2484 101.341 17.1824L101.473 16.5014C101.495 16.3914 101.583 16.4134 101.583 16.4134H102.33L102.374 16.1934C102.484 15.5334 102.704 15.0284 103.033 14.6984C103.363 14.3684 103.846 14.1934 104.44 14.1934C104.616 14.1934 104.77 14.2154 104.901 14.2374C105.006 14.2208 105.113 14.2361 105.209 14.2814ZM90.396 21.4234C90.396 21.4894 90.352 21.5334 90.308 21.5334H89.428C89.363 21.5334 89.341 21.4894 89.341 21.4234V14.3684C89.341 14.3244 89.385 14.2584 89.429 14.2584H90.308C90.374 14.2584 90.396 14.3024 90.396 14.3684V21.4234Z" fill="white"/>
</svg>
