<svg width="201" height="41" viewBox="0 0 201 41" fill="none" xmlns="http://www.w3.org/2000/svg">
<path d="M66.3886 8.34897C66.5056 8.36897 66.6616 8.44697 66.6816 8.62297C66.7016 8.77897 70.2966 33.107 70.2966 33.107L61.4836 35.294L41.1426 31.778C41.1426 31.778 43.5656 13 43.6626 12.355C43.7806 11.475 43.8196 11.456 44.7376 11.163C44.7516 11.149 45.4076 10.947 46.4466 10.628L47.8836 10.186C48.0796 8.77897 48.7636 6.96197 49.6816 5.51597C50.9916 3.44497 52.5736 2.29197 54.1756 2.25297C54.9966 2.23297 55.6806 2.50697 56.2276 3.09297C56.2676 3.15097 56.3056 3.19097 56.3446 3.22997C56.4236 3.20997 56.5206 3.20997 56.5986 3.20997C57.8486 3.20997 58.8656 3.91397 59.5686 5.26197C59.7836 5.67197 59.9406 6.08197 60.0386 6.41497L61.0346 6.10197C61.1906 6.06197 61.5616 6.00397 61.7576 6.19997C61.9526 6.39497 63.9266 8.30997 63.9266 8.30997C63.9266 8.30997 66.2716 8.32997 66.3886 8.34997V8.34897ZM58.2306 6.97097C58.5106 6.88297 58.7746 6.79897 59.0216 6.72697C58.7676 5.90697 58.1816 4.53897 56.9506 4.30397C57.3216 5.28097 57.4196 6.41397 57.4396 7.21597C57.7156 7.13297 57.9806 7.04997 58.2306 6.97097ZM55.5606 7.80197L56.3836 7.54797C56.3836 6.66797 56.3056 5.35897 55.8566 4.44097C55.3866 4.63697 54.9966 4.96897 54.7036 5.28097C53.9416 6.10197 53.3166 7.35297 52.9836 8.60297C53.8415 8.33246 54.7005 8.06546 55.5606 7.80197ZM55.1526 3.58197C54.8796 3.40497 54.5666 3.32697 54.1956 3.32697C51.7336 3.40497 49.5836 7.25497 48.9976 9.83397L49.2536 9.75397C50.0576 9.50397 50.9086 9.23897 51.7916 8.97397C52.1046 7.33397 52.8866 5.65297 53.9016 4.55797C54.2936 4.12797 54.7236 3.79697 55.1526 3.58197ZM55.5826 16.712L56.5986 12.882C56.5986 12.882 55.7196 12.433 53.9606 12.589C49.4866 12.882 47.4546 16.009 47.6496 19.096C47.7816 21.147 48.9966 22.01 50.0616 22.766C50.8936 23.357 51.6346 23.883 51.6946 24.861C51.7336 25.408 51.4016 26.17 50.4636 26.228C49.0366 26.307 47.2396 24.958 47.2396 24.958L46.5556 27.87C46.5556 27.87 48.3336 29.765 51.5776 29.57C54.2736 29.394 56.1496 27.244 55.9546 24.079C55.8006 21.657 54.0976 20.564 52.7486 19.698C51.8656 19.132 51.1346 18.662 51.0886 17.982C51.0686 17.65 51.0886 16.4 53.0816 16.282C53.9371 16.2329 54.7926 16.38 55.5826 16.712Z" fill="#95BF47"/>
<path d="M66.3924 8.35422C66.2724 8.33422 63.9224 8.31422 63.9224 8.31422L61.7524 6.19422C61.6816 6.12036 61.5847 6.07726 61.4824 6.07422V35.2942L70.2924 33.1042C70.2924 33.1042 66.6924 8.80422 66.6824 8.62422C66.6664 8.55375 66.629 8.48996 66.5753 8.44162C66.5215 8.39328 66.4542 8.36275 66.3824 8.35422H66.3924Z" fill="#5E8E3E"/>
<path d="M56.6027 12.883L55.5827 16.713C55.5827 16.713 54.4527 16.183 53.0827 16.283C51.0827 16.403 51.0727 17.653 51.0827 17.983C51.2027 19.703 55.7027 20.073 55.9527 24.083C56.1527 27.243 54.2727 29.393 51.5727 29.573C50.6639 29.6526 49.7484 29.5425 48.8843 29.2499C48.0202 28.9573 47.2262 28.4884 46.5527 27.873L47.2427 24.953C47.2427 24.953 49.0427 26.303 50.4627 26.223C50.6344 26.2195 50.8036 26.1809 50.9598 26.1096C51.116 26.0383 51.256 25.9358 51.3712 25.8084C51.4864 25.6811 51.5744 25.5315 51.6296 25.3689C51.6849 25.2063 51.7064 25.0342 51.6927 24.863C51.5527 22.633 47.8927 22.753 47.6527 19.093C47.4527 16.003 49.4827 12.883 53.9527 12.593C55.7227 12.433 56.6027 12.883 56.6027 12.883Z" fill="white"/>
<path d="M82.2429 21.0537C81.2229 20.5037 80.6929 20.0337 80.6929 19.3937C80.6929 18.5637 81.4129 18.0437 82.5729 18.0437C83.8929 18.0437 85.0729 18.5837 85.0729 18.5837L86.0029 15.7337C86.0029 15.7337 85.1429 15.0737 82.6229 15.0737C79.1129 15.0737 76.6628 17.0837 76.6628 19.9137C76.6628 21.5137 77.8029 22.7537 79.3229 23.6337C80.5529 24.3337 80.9828 24.8237 80.9828 25.5637C80.9828 26.3237 80.3829 26.9337 79.2229 26.9337C77.5229 26.9337 75.9229 26.0537 75.9229 26.0537L74.9229 28.9037C74.9229 28.9037 76.4129 29.9037 78.8929 29.9037C82.5129 29.9037 85.1129 28.1237 85.1129 24.9237C85.1329 23.1837 83.8128 21.9537 82.2328 21.0537H82.2429ZM96.6529 15.0337C94.8829 15.0337 93.4729 15.8737 92.3929 17.1637L92.3428 17.1437L93.8829 9.04367H89.8428L85.9429 29.6237H89.9629L91.3129 22.5937C91.8429 19.9337 93.2129 18.2937 94.4929 18.2937C95.3929 18.2937 95.7429 18.8937 95.7429 19.7837C95.7429 20.3237 95.6929 21.0137 95.5729 21.5537L94.0429 29.6037H98.0729L99.6529 21.2837C99.8329 20.4037 99.9529 19.3537 99.9529 18.6637C99.9529 16.4237 98.7329 15.0337 96.6529 15.0337ZM109.063 15.0337C104.223 15.0337 101.013 19.4037 101.013 24.2937C101.013 27.4237 102.953 29.9237 106.563 29.9237C111.313 29.9237 114.533 25.6637 114.533 20.6637C114.513 17.7837 112.813 15.0337 109.063 15.0337ZM107.063 26.8337C105.703 26.8337 105.113 25.6637 105.113 24.2137C105.113 21.9137 106.313 18.1337 108.503 18.1337C109.923 18.1337 110.403 19.3737 110.403 20.5637C110.403 23.0437 109.203 26.8337 107.073 26.8337H107.063ZM124.813 15.0337C122.103 15.0337 120.553 17.4137 120.553 17.4137H120.493L120.733 15.2437H117.173C116.961 17.0326 116.688 18.8137 116.353 20.5837L113.553 35.3137H117.583L118.703 29.3537H118.773C118.773 29.3537 119.593 29.8837 121.143 29.8837C125.873 29.8837 128.953 25.0337 128.953 20.1337C128.973 17.4537 127.763 15.0337 124.813 15.0337ZM120.963 26.8937C119.913 26.8937 119.303 26.3037 119.303 26.3037L119.973 22.5337C120.433 20.0337 121.743 18.3537 123.153 18.3537C124.383 18.3537 124.753 19.4837 124.753 20.5837C124.753 23.1837 123.213 26.8837 120.963 26.8837V26.8937ZM134.723 9.26367C134.417 9.2636 134.113 9.32471 133.831 9.44341C133.549 9.56211 133.293 9.73601 133.079 9.95491C132.864 10.1738 132.696 10.4333 132.583 10.7181C132.471 11.003 132.416 11.3075 132.423 11.6137C132.423 12.8037 133.173 13.6237 134.313 13.6237H134.373C135.623 13.6237 136.713 12.7837 136.733 11.2837C136.733 10.1037 135.953 9.26367 134.723 9.26367ZM129.093 29.6237H133.123L135.853 15.3637H131.793L129.093 29.6237ZM146.093 15.3237H143.293L143.433 14.6637C143.673 13.2937 144.493 12.0637 145.823 12.0637C146.543 12.0637 147.113 12.2637 147.113 12.2637L147.893 9.11367C147.893 9.11367 147.193 8.76367 145.703 8.76367C144.273 8.76367 142.853 9.16367 141.753 10.1037C140.383 11.2837 139.743 12.9637 139.413 14.6637L139.293 15.3237H137.413L136.833 18.3537H138.703L136.573 29.6237H140.603L142.733 18.3537H145.503L146.103 15.3237H146.093ZM155.793 15.3637C155.793 15.3637 153.263 21.7137 152.133 25.1637H152.073C151.993 24.0637 151.073 15.3637 151.073 15.3637H146.853L149.283 28.4737C149.333 28.7737 149.303 28.9437 149.203 29.1437C148.672 30.1139 147.918 30.9435 147.003 31.5637C146.253 32.1137 145.403 32.4637 144.723 32.6937L145.843 36.1137C146.663 35.9437 148.343 35.2737 149.783 33.9237C151.623 32.2037 153.323 29.5537 155.063 25.9337L159.983 15.3637H155.783H155.793Z" fill="black"/>
</svg>
