<svg width="201" height="41" viewBox="0 0 201 41" fill="none" xmlns="http://www.w3.org/2000/svg">
<path fill-rule="evenodd" clip-rule="evenodd" d="M77.1426 40.1934H122.84V0.193359H77.1426V40.1934ZM99.0146 12.5474C98.9906 14.3034 98.9906 15.9654 97.5056 17.5104C95.6996 19.4074 92.3356 20.0384 89.6886 20.0384C88.4488 20.0463 87.2122 19.9131 86.0026 19.6414C85.1626 19.4544 84.0736 19.1264 82.9856 18.4474C80.2386 16.6914 80.2156 14.5134 80.2156 12.5474V2.94936H84.5686V12.6654C84.5686 14.1394 84.8896 15.3794 86.5476 16.1294C87.9576 16.7624 89.2186 16.7154 90.5056 16.6684C92.1626 16.5264 93.2266 16.1054 93.9196 15.3574C94.3396 14.8884 94.7116 14.3504 94.6606 12.6874V2.94936H99.0156L99.0146 12.5474ZM99.1786 32.6474C99.1786 33.6064 98.9456 34.6134 98.3526 35.4324C96.9356 37.3764 94.5896 37.3764 92.8116 37.3984H80.3076V20.8734H92.1146C93.9966 20.9194 96.2906 20.9664 97.5286 22.5814C98.1726 23.4244 98.2506 24.3374 98.2506 24.9224C98.2506 25.3674 98.1986 26.3044 97.5286 27.1224C96.7806 28.0124 95.8016 28.2934 95.2346 28.4334C96.3686 28.7154 99.1786 29.3464 99.1786 32.6484V32.6474ZM114.538 12.5714L119.832 19.4764H114.687L110.011 12.8284H105.039V19.4764H100.66V2.94936H112.682C114.662 2.94936 116.467 3.11336 117.927 4.70536C118.818 5.68836 119.065 6.92936 119.065 7.88936C119.065 9.15336 118.62 10.6524 117.383 11.5414C116.443 12.2204 115.23 12.4534 114.538 12.5714ZM119.931 37.4244H115.602L106.944 28.1074C106.167 27.2645 105.416 26.3981 104.693 25.5094C104.817 26.7734 104.817 27.0544 104.841 28.3184V37.4244H100.686V20.8974H105.04L113.598 30.0974C114.637 31.2444 114.835 31.4794 115.924 32.7674C115.776 31.1974 115.776 30.7764 115.751 29.3484V20.8974H119.931V37.4244ZM114.637 7.93636C114.637 7.60836 114.587 7.04636 114.291 6.64836C113.969 6.25036 113.548 5.85236 111.817 5.85236H105.039V9.90236H112.015C112.954 9.90236 114.637 9.78536 114.637 7.93636ZM94.6156 32.2484C94.6156 30.2584 92.8886 30.2584 92.2186 30.2584H84.8196V34.4964H91.6516C92.6816 34.4964 94.6156 34.5194 94.6156 32.2484ZM93.8936 25.5304C93.8936 23.7744 92.4236 23.7504 91.7016 23.7504H84.8196V27.3804H91.3416C91.8826 27.3804 92.3976 27.3564 92.8116 27.2154C93.8936 26.8174 93.8936 25.7174 93.8936 25.5304Z" fill="black"/>
</svg>
