<svg width="201" height="41" viewBox="0 0 201 41" fill="none" xmlns="http://www.w3.org/2000/svg">
<path d="M50.1326 5.19341C41.9396 5.19341 35.2706 11.8614 35.2666 20.0574C35.2666 22.6774 35.9506 25.2354 37.2516 27.4894L35.1426 35.1934L43.0226 33.1264C45.2022 34.3135 47.6446 34.9355 50.1266 34.9354H50.1326C58.3256 34.9354 64.9946 28.2654 64.9986 20.0704C65.005 18.1168 64.6238 16.1814 63.8771 14.3762C63.1304 12.5709 62.0331 10.9317 60.6486 9.55341C59.2714 8.16706 57.6327 7.06782 55.8276 6.3194C54.0224 5.57098 52.0867 5.18826 50.1326 5.19341ZM50.1326 32.4244H50.1276C47.9116 32.4244 45.7356 31.8274 43.8396 30.7024L43.3886 30.4354L38.7126 31.6614L39.9606 27.1024L39.6666 26.6354C38.4289 24.6656 37.7736 22.3858 37.7766 20.0594C37.7796 13.2464 43.3226 7.70441 50.1386 7.70441C53.4386 7.70541 56.5406 8.99241 58.8726 11.3284C60.0231 12.4739 60.9351 13.8361 61.5558 15.3363C62.1765 16.8365 62.4935 18.4449 62.4886 20.0684C62.4866 26.8814 56.9436 32.4244 50.1326 32.4244ZM56.9096 23.1714C56.5396 22.9854 54.7126 22.0864 54.3716 21.9624C54.0316 21.8384 53.7836 21.7764 53.5356 22.1484C53.2886 22.5204 52.5766 23.3574 52.3606 23.6054C52.1436 23.8534 51.9266 23.8844 51.5556 23.6984C51.1846 23.5124 49.9866 23.1184 48.5686 21.8544C47.4646 20.8694 46.7186 19.6524 46.5026 19.2814C46.2866 18.9094 46.4796 18.7084 46.6656 18.5234C46.8326 18.3574 47.0366 18.0894 47.2226 17.8724C47.4086 17.6554 47.4706 17.5004 47.5936 17.2524C47.7176 17.0044 47.6556 16.7874 47.5636 16.6014C47.4696 16.4154 46.7266 14.5864 46.4176 13.8434C46.1156 13.1194 45.8096 13.2164 45.5816 13.2054C45.3444 13.1951 45.107 13.1908 44.8696 13.1924C44.6226 13.1924 44.2196 13.2854 43.8796 13.6574C43.5386 14.0294 42.5796 14.9274 42.5796 16.7554C42.5796 18.5844 43.9096 20.3504 44.0956 20.5984C44.2816 20.8464 46.7146 24.5984 50.4406 26.2064C51.3266 26.5894 52.0186 26.8174 52.5586 26.9884C53.4486 27.2714 54.2586 27.2314 54.8976 27.1354C55.6106 27.0284 57.0956 26.2374 57.4046 25.3684C57.7146 24.5014 57.7146 23.7584 57.6206 23.6024C57.5276 23.4474 57.2806 23.3544 56.9096 23.1684V23.1714ZM83.2086 22.9444H83.1686L80.7036 13.0014H77.7336L75.2286 22.8234H75.1886L72.9056 13.0024H69.7346L73.5526 27.4314H76.7646L79.1686 17.6094H79.2086L81.6536 27.4314H84.8056L88.6846 13.0014H85.5726L83.2086 22.9444ZM98.3606 17.8824C98.0776 17.5124 97.6906 17.2224 97.1996 17.0124C96.7076 16.8054 96.0776 16.7014 95.3096 16.7014C94.7716 16.7014 94.2196 16.8384 93.6536 17.1154C93.0876 17.3914 92.6236 17.8324 92.2596 18.4394H92.1986V13.0024H89.3306V27.4304H92.1986V21.9534C92.1986 20.8884 92.3736 20.1244 92.7246 19.6594C93.0746 19.1944 93.6406 18.9624 94.4216 18.9624C95.1076 18.9624 95.5856 19.1744 95.8556 19.5994C96.1256 20.0234 96.2606 20.6664 96.2606 21.5284V27.4284H99.1296V21.0034C99.1296 20.3564 99.0716 19.7674 98.9576 19.2344C98.8426 18.7044 98.6436 18.2534 98.3606 17.8824ZM110.179 25.1064V19.6714C110.179 19.0364 110.039 18.5284 109.755 18.1454C109.471 17.7603 109.096 17.4511 108.665 17.2454C108.199 17.0237 107.7 16.8772 107.189 16.8114C106.66 16.7381 106.127 16.701 105.594 16.7004C105.015 16.7004 104.439 16.7564 103.867 16.8724C103.323 16.9763 102.8 17.171 102.321 17.4484C101.867 17.7144 101.481 18.0803 101.191 18.5184C100.894 18.9634 100.725 19.5224 100.685 20.1964H103.554C103.608 19.6314 103.797 19.2264 104.12 18.9834C104.443 18.7414 104.888 18.6204 105.453 18.6204C105.709 18.6204 105.948 18.6374 106.17 18.6704C106.392 18.7054 106.587 18.7704 106.756 18.8724C106.924 18.9734 107.059 19.1154 107.16 19.2974C107.261 19.4794 107.311 19.7254 107.311 20.0344C107.324 20.3314 107.236 20.5554 107.049 20.7114C106.859 20.8664 106.604 20.9854 106.28 21.0654C105.914 21.154 105.543 21.2145 105.169 21.2464C104.751 21.2884 104.327 21.3434 103.897 21.4094C103.465 21.4764 103.038 21.5674 102.614 21.6814C102.209 21.7867 101.826 21.9609 101.482 22.1964C101.152 22.4264 100.882 22.7324 100.673 23.1164C100.465 23.5004 100.36 23.9904 100.36 24.5814C100.36 25.1204 100.451 25.5854 100.633 25.9754C100.815 26.3674 101.068 26.6894 101.391 26.9454C101.714 27.2024 102.091 27.3914 102.522 27.5124C102.952 27.6334 103.418 27.6944 103.916 27.6944C104.559 27.6945 105.199 27.5991 105.815 27.4114C106.43 27.225 106.986 26.8838 107.432 26.4204C107.456 26.7641 107.524 27.1035 107.633 27.4304H110.543C110.408 27.2154 110.313 26.8924 110.259 26.4604C110.203 26.0112 110.177 25.559 110.179 25.1064ZM107.311 23.3884C107.311 23.5514 107.295 23.7674 107.261 24.0364C107.228 24.3064 107.136 24.5714 106.988 24.8344C106.839 25.0974 106.61 25.3244 106.3 25.5114C105.991 25.7014 105.553 25.7944 104.987 25.7944C104.758 25.7944 104.536 25.7744 104.32 25.7334C104.119 25.6988 103.927 25.6269 103.754 25.5214C103.591 25.4192 103.459 25.2761 103.37 25.1064C103.27 24.9061 103.221 24.6841 103.229 24.4604C103.229 24.1914 103.276 23.9684 103.37 23.7934C103.46 23.6224 103.589 23.4741 103.745 23.3594C103.91 23.2392 104.094 23.147 104.29 23.0864C104.498 23.0194 104.71 22.9654 104.927 22.9244C105.155 22.8844 105.385 22.8494 105.613 22.8244C105.843 22.7974 106.061 22.7634 106.27 22.7224C106.479 22.6824 106.674 22.6324 106.857 22.5714C107.038 22.5104 107.189 22.4274 107.311 22.3184V23.3884ZM115.534 13.8514H112.665V16.9824H110.928V18.9024H112.665V25.0664C112.665 25.5924 112.753 26.0164 112.928 26.3394C113.104 26.6624 113.343 26.9134 113.645 27.0874C113.969 27.2704 114.326 27.3902 114.696 27.4404C115.093 27.5004 115.515 27.5314 115.959 27.5314C116.243 27.5314 116.532 27.5244 116.829 27.5124C117.099 27.5014 117.369 27.4744 117.637 27.4314V25.2084C117.496 25.2365 117.354 25.2565 117.212 25.2684C117.057 25.2832 116.903 25.2902 116.748 25.2894C116.264 25.2894 115.94 25.2084 115.778 25.0464C115.617 24.8844 115.537 24.5614 115.537 24.0764V18.9024H117.638V16.9824H115.537V13.8504H115.534V13.8514ZM127.392 22.8544C127.206 22.527 126.951 22.2438 126.645 22.0244C126.319 21.7953 125.961 21.615 125.584 21.4894C125.182 21.3546 124.774 21.2401 124.362 21.1464C123.965 21.0535 123.568 20.9658 123.17 20.8834C122.818 20.8124 122.47 20.7216 122.129 20.6114C121.86 20.5283 121.61 20.3942 121.393 20.2164C121.301 20.1403 121.228 20.0444 121.179 19.936C121.13 19.8275 121.107 19.7093 121.111 19.5904C121.111 19.3744 121.163 19.2024 121.272 19.0754C121.379 18.9487 121.514 18.8481 121.666 18.7814C121.822 18.7144 121.992 18.6714 122.181 18.6504C122.369 18.6304 122.545 18.6204 122.706 18.6204C123.217 18.6204 123.662 18.7184 124.04 18.9134C124.417 19.1094 124.626 19.4834 124.665 20.0344H127.393C127.339 19.3884 127.174 18.8524 126.898 18.4274C126.632 18.0135 126.277 17.6649 125.858 17.4074C125.419 17.1425 124.936 16.9576 124.433 16.8614C123.891 16.7529 123.34 16.699 122.788 16.7004C122.223 16.7004 121.669 16.7504 121.132 16.8504C120.62 16.9418 120.128 17.1201 119.677 17.3774C119.249 17.6236 118.89 17.9746 118.636 18.3974C118.373 18.8274 118.242 19.3804 118.242 20.0544C118.242 20.5124 118.336 20.9004 118.526 21.2174C118.713 21.5344 118.963 21.7954 119.271 22.0054C119.583 22.2134 119.936 22.3834 120.333 22.5104C120.73 22.6404 121.138 22.7504 121.555 22.8444C122.58 23.0604 123.378 23.2754 123.95 23.4924C124.523 23.7074 124.808 24.0304 124.808 24.4624C124.808 24.7184 124.748 24.9284 124.627 25.0974C124.507 25.2645 124.352 25.4026 124.172 25.5014C123.982 25.6058 123.778 25.6807 123.566 25.7234C123.356 25.7694 123.143 25.7932 122.929 25.7944C122.646 25.7944 122.374 25.7604 122.111 25.6944C121.861 25.6326 121.624 25.5262 121.413 25.3804C121.209 25.2371 121.04 25.0506 120.918 24.8344C120.784 24.5899 120.718 24.3147 120.726 24.0364H117.999C118.027 24.7364 118.184 25.3194 118.475 25.7844C118.753 26.2392 119.133 26.6232 119.585 26.9064C120.036 27.1884 120.552 27.3914 121.132 27.5124C122.294 27.7522 123.492 27.7556 124.656 27.5224C125.197 27.4205 125.714 27.2184 126.181 26.9264C126.625 26.6443 126.996 26.2599 127.262 25.8054C127.538 25.3394 127.676 24.7644 127.676 24.0764C127.676 23.5914 127.582 23.1844 127.394 22.8554L127.392 22.8544ZM133.089 13.0014L127.634 27.4314H130.826L131.957 24.2174H137.351L138.441 27.4314H141.735L136.341 13.0014H133.089ZM132.786 21.8544L134.665 16.5594H134.705L136.524 21.8544H132.786ZM151.655 18.3984C151.261 17.8833 150.757 17.4624 150.18 17.1664C149.588 16.8564 148.881 16.7014 148.06 16.7014C147.413 16.7014 146.821 16.8284 146.282 17.0844C145.742 17.3404 145.299 17.7514 144.949 18.3174H144.908V16.9824H142.18V31.0894H145.051V26.1384H145.09C145.44 26.6504 145.889 27.0374 146.435 27.2984C146.993 27.5643 147.604 27.6994 148.223 27.6934C148.991 27.6934 149.661 27.5434 150.233 27.2484C150.793 26.9617 151.283 26.5542 151.667 26.0554C152.058 25.5416 152.349 24.9593 152.527 24.3384C152.713 23.6914 152.809 23.0184 152.809 22.3174C152.809 21.5764 152.713 20.8664 152.527 20.1844C152.353 19.5384 152.058 18.9315 151.657 18.3964L151.655 18.3984ZM149.817 23.4704C149.735 23.8754 149.597 24.2284 149.403 24.5304C149.207 24.8344 148.952 25.0804 148.634 25.2694C148.318 25.4574 147.924 25.5534 147.453 25.5534C146.982 25.5534 146.605 25.4584 146.282 25.2694C145.967 25.0894 145.7 24.8362 145.504 24.5314C145.299 24.2065 145.155 23.8469 145.08 23.4704C144.992 23.0656 144.948 22.6526 144.949 22.2384C144.949 21.8224 144.988 21.3884 145.069 20.9854C145.141 20.6056 145.282 20.2423 145.485 19.9134C145.678 19.6034 145.935 19.3524 146.253 19.1564C146.569 18.9614 146.962 18.8624 147.434 18.8624C147.905 18.8624 148.28 18.9614 148.595 19.1564C148.912 19.3514 149.172 19.6064 149.373 19.9244C149.575 20.2414 149.719 20.6014 149.808 21.0044C149.895 21.4102 149.939 21.8243 149.938 22.2394C149.938 22.6574 149.898 23.0674 149.817 23.4694V23.4704ZM163.958 20.1864C163.785 19.5402 163.49 18.9331 163.089 18.3984C162.695 17.8835 162.191 17.4627 161.615 17.1664C161.022 16.8564 160.314 16.7014 159.493 16.7014C158.847 16.7014 158.254 16.8284 157.716 17.0844C157.177 17.3404 156.732 17.7514 156.382 18.3174H156.343V16.9824H153.615V31.0894H156.484V26.1384H156.525C156.875 26.6504 157.323 27.0374 157.868 27.2984C158.426 27.5642 159.037 27.6993 159.656 27.6934C160.424 27.6934 161.093 27.5434 161.666 27.2484C162.226 26.962 162.716 26.5545 163.1 26.0554C163.485 25.5564 163.77 24.9854 163.959 24.3384C164.148 23.6914 164.242 23.0184 164.242 22.3174C164.242 21.5764 164.148 20.8664 163.959 20.1844L163.958 20.1864ZM161.25 23.4704C161.181 23.847 161.04 24.2068 160.836 24.5304C160.64 24.8344 160.385 25.0804 160.068 25.2694C159.752 25.4574 159.358 25.5534 158.886 25.5534C158.415 25.5534 158.038 25.4584 157.714 25.2694C157.399 25.0894 157.132 24.8362 156.936 24.5314C156.731 24.2063 156.588 23.8468 156.512 23.4704C156.424 23.0657 156.379 22.6526 156.38 22.2384C156.38 21.8224 156.421 21.3884 156.502 20.9854C156.573 20.6057 156.714 20.2424 156.917 19.9134C157.111 19.6034 157.368 19.3524 157.685 19.1564C158 18.9614 158.395 18.8624 158.866 18.8624C159.338 18.8624 159.711 18.9614 160.027 19.1564C160.345 19.3514 160.604 19.6064 160.806 19.9244C161.008 20.2414 161.154 20.6014 161.24 21.0044C161.329 21.4094 161.372 21.8214 161.372 22.2394C161.372 22.6574 161.331 23.0674 161.25 23.4694V23.4704Z" fill="#25D366"/>
</svg>
